<mxfile host="65bd71144e">
    <diagram id="JXWKTxL3_nK4k4YYtHSP" name="Page-1">
        <mxGraphModel dx="1020" dy="604" grid="1" gridSize="10" guides="1" tooltips="1" connect="1" arrows="1" fold="1" page="1" pageScale="1" pageWidth="850" pageHeight="1100" math="0" shadow="0">
            <root>
                <mxCell id="0"/>
                <mxCell id="1" parent="0"/>
                <mxCell id="2" value="Configure Evaluation System" style="strokeWidth=1;shadow=0;dashed=0;align=center;html=1;shape=mxgraph.mockup.containers.window;align=left;verticalAlign=top;spacingLeft=8;strokeColor2=#008cff;strokeColor3=#c4c4c4;fontColor=#666666;mainText=;fontSize=17;labelBackgroundColor=none;whiteSpace=wrap;" parent="1" vertex="1">
                    <mxGeometry x="50" y="90" width="660" height="560" as="geometry"/>
                </mxCell>
                <mxCell id="3" value="Confirm" style="strokeWidth=1;shadow=0;dashed=0;align=center;html=1;shape=mxgraph.mockup.buttons.button;strokeColor=#2D7600;fontColor=#ffffff;mainText=;buttonStyle=round;fontSize=17;fontStyle=1;fillColor=#60a917;whiteSpace=wrap;" parent="1" vertex="1">
                    <mxGeometry x="415" y="500" width="150" height="50" as="geometry"/>
                </mxCell>
                <mxCell id="15" value="Messaging system IP address :" style="text;html=1;strokeColor=none;fillColor=none;align=left;verticalAlign=middle;whiteSpace=wrap;rounded=0;" parent="1" vertex="1">
                    <mxGeometry x="80" y="410" width="210" height="30" as="geometry"/>
                </mxCell>
                <mxCell id="16" value="&lt;i style=&quot;border-color: var(--border-color);&quot;&gt;&lt;font style=&quot;border-color: var(--border-color);&quot;&gt;192.168.1.16&lt;/font&gt;&lt;/i&gt;" style="rounded=0;whiteSpace=wrap;html=1;fontColor=#000000;" parent="1" vertex="1">
                    <mxGeometry x="350" y="417.5" width="250" height="15" as="geometry"/>
                </mxCell>
                <mxCell id="17" value="Thresholds" style="text;html=1;strokeColor=none;fillColor=none;align=center;verticalAlign=middle;whiteSpace=wrap;rounded=0;fontStyle=1;fontSize=14;" vertex="1" parent="1">
                    <mxGeometry x="265" y="180" width="170" height="30" as="geometry"/>
                </mxCell>
                <mxCell id="18" value="Maximum Allowed &lt;br&gt;Total Errors" style="text;html=1;strokeColor=none;fillColor=#f5f5f5;align=center;verticalAlign=middle;whiteSpace=wrap;rounded=1;fontColor=#333333;" vertex="1" parent="1">
                    <mxGeometry x="225" y="220" width="130" height="40" as="geometry"/>
                </mxCell>
                <mxCell id="19" value="" style="dashed=0;verticalLabelPosition=bottom;verticalAlign=top;align=center;shape=mxgraph.gmdl.sliderFocused;barPos=65.17;strokeColor=#3F51B5;opacity=100;strokeWidth=2;fillColor=#3F51B5;handleSize=30;shadow=0;html=1;" vertex="1" parent="1">
                    <mxGeometry x="375" y="226" width="110" height="30" as="geometry"/>
                </mxCell>
                <mxCell id="20" value="150" style="text;html=1;align=center;verticalAlign=middle;whiteSpace=wrap;rounded=1;" vertex="1" parent="1">
                    <mxGeometry x="475" y="221" width="60" height="40" as="geometry"/>
                </mxCell>
                <mxCell id="21" value="Maximum Allowed &lt;br&gt;Consecutive Errors" style="text;html=1;strokeColor=none;fillColor=#f5f5f5;align=center;verticalAlign=middle;whiteSpace=wrap;rounded=1;fontColor=#333333;" vertex="1" parent="1">
                    <mxGeometry x="225" y="269" width="130" height="40" as="geometry"/>
                </mxCell>
                <mxCell id="22" value="" style="dashed=0;verticalLabelPosition=bottom;verticalAlign=top;align=center;shape=mxgraph.gmdl.sliderFocused;barPos=41.64;strokeColor=#3F51B5;opacity=100;strokeWidth=2;fillColor=#3F51B5;handleSize=30;shadow=0;html=1;" vertex="1" parent="1">
                    <mxGeometry x="375" y="280" width="110" height="30" as="geometry"/>
                </mxCell>
                <mxCell id="23" value="15" style="text;html=1;align=center;verticalAlign=middle;whiteSpace=wrap;rounded=1;" vertex="1" parent="1">
                    <mxGeometry x="475" y="275" width="60" height="40" as="geometry"/>
                </mxCell>
            </root>
        </mxGraphModel>
    </diagram>
</mxfile>